<mxfile host="app.diagrams.net" modified="2023-09-05T06:35:07.246Z" agent="Mozilla/5.0 (Windows NT 10.0; Win64; x64) AppleWebKit/537.36 (KHTML, like Gecko) Chrome/109.0.0.0 Safari/537.36" etag="8C_MJqwYU89I5O5q32GV" version="21.7.2" type="device">
  <diagram id="C5RBs43oDa-KdzZeNtuy" name="Page-1">
    <mxGraphModel dx="1434" dy="739" grid="1" gridSize="10" guides="1" tooltips="1" connect="1" arrows="1" fold="1" page="1" pageScale="1" pageWidth="1169" pageHeight="827" math="0" shadow="0">
      <root>
        <mxCell id="WIyWlLk6GJQsqaUBKTNV-0" />
        <mxCell id="WIyWlLk6GJQsqaUBKTNV-1" parent="WIyWlLk6GJQsqaUBKTNV-0" />
        <mxCell id="xVFQKaqjHIsM4C6yXQPp-0" value="&lt;h1&gt;Pattern Memento&lt;/h1&gt;&lt;p&gt;Диаграмма классов паттерна &quot;Хранитель (Memento)&quot;&lt;/p&gt;&lt;p&gt;&lt;b&gt;Тип&lt;/b&gt;: поведенческий&lt;/p&gt;&lt;p&gt;&lt;b&gt;Назначение&lt;/b&gt;: не нарушая инкапсуляцию, определяет и сохраняет внутреннее состояние объекта, а также позволяет его восстановить.&lt;/p&gt;" style="text;html=1;strokeColor=none;fillColor=none;spacing=5;spacingTop=-20;whiteSpace=wrap;overflow=hidden;rounded=0;" vertex="1" parent="WIyWlLk6GJQsqaUBKTNV-1">
          <mxGeometry x="40" y="40" width="400" height="160" as="geometry" />
        </mxCell>
        <mxCell id="xVFQKaqjHIsM4C6yXQPp-8" value="OriginatorDoc" style="swimlane;fontStyle=1;align=center;verticalAlign=top;childLayout=stackLayout;horizontal=1;startSize=26;horizontalStack=0;resizeParent=1;resizeParentMax=0;resizeLast=0;collapsible=1;marginBottom=0;whiteSpace=wrap;html=1;" vertex="1" parent="WIyWlLk6GJQsqaUBKTNV-1">
          <mxGeometry x="639" y="399" width="280" height="112" as="geometry" />
        </mxCell>
        <mxCell id="xVFQKaqjHIsM4C6yXQPp-9" value="- text: String" style="text;strokeColor=none;fillColor=none;align=left;verticalAlign=top;spacingLeft=4;spacingRight=4;overflow=hidden;rotatable=0;points=[[0,0.5],[1,0.5]];portConstraint=eastwest;whiteSpace=wrap;html=1;" vertex="1" parent="xVFQKaqjHIsM4C6yXQPp-8">
          <mxGeometry y="26" width="280" height="26" as="geometry" />
        </mxCell>
        <mxCell id="xVFQKaqjHIsM4C6yXQPp-10" value="" style="line;strokeWidth=1;fillColor=none;align=left;verticalAlign=middle;spacingTop=-1;spacingLeft=3;spacingRight=3;rotatable=0;labelPosition=right;points=[];portConstraint=eastwest;strokeColor=inherit;" vertex="1" parent="xVFQKaqjHIsM4C6yXQPp-8">
          <mxGeometry y="52" width="280" height="8" as="geometry" />
        </mxCell>
        <mxCell id="xVFQKaqjHIsM4C6yXQPp-11" value="+ saveState(): MementoDoc" style="text;strokeColor=none;fillColor=none;align=left;verticalAlign=top;spacingLeft=4;spacingRight=4;overflow=hidden;rotatable=0;points=[[0,0.5],[1,0.5]];portConstraint=eastwest;whiteSpace=wrap;html=1;" vertex="1" parent="xVFQKaqjHIsM4C6yXQPp-8">
          <mxGeometry y="60" width="280" height="26" as="geometry" />
        </mxCell>
        <mxCell id="xVFQKaqjHIsM4C6yXQPp-16" value="+ restoreState(MementoDoc memento): void" style="text;strokeColor=none;fillColor=none;align=left;verticalAlign=top;spacingLeft=4;spacingRight=4;overflow=hidden;rotatable=0;points=[[0,0.5],[1,0.5]];portConstraint=eastwest;whiteSpace=wrap;html=1;" vertex="1" parent="xVFQKaqjHIsM4C6yXQPp-8">
          <mxGeometry y="86" width="280" height="26" as="geometry" />
        </mxCell>
        <mxCell id="xVFQKaqjHIsM4C6yXQPp-12" value="MementoDoc" style="swimlane;fontStyle=1;align=center;verticalAlign=top;childLayout=stackLayout;horizontal=1;startSize=26;horizontalStack=0;resizeParent=1;resizeParentMax=0;resizeLast=0;collapsible=1;marginBottom=0;whiteSpace=wrap;html=1;" vertex="1" parent="WIyWlLk6GJQsqaUBKTNV-1">
          <mxGeometry x="640" y="199" width="280" height="112" as="geometry" />
        </mxCell>
        <mxCell id="xVFQKaqjHIsM4C6yXQPp-13" value="- text: String" style="text;strokeColor=none;fillColor=none;align=left;verticalAlign=top;spacingLeft=4;spacingRight=4;overflow=hidden;rotatable=0;points=[[0,0.5],[1,0.5]];portConstraint=eastwest;whiteSpace=wrap;html=1;" vertex="1" parent="xVFQKaqjHIsM4C6yXQPp-12">
          <mxGeometry y="26" width="280" height="26" as="geometry" />
        </mxCell>
        <mxCell id="xVFQKaqjHIsM4C6yXQPp-14" value="" style="line;strokeWidth=1;fillColor=none;align=left;verticalAlign=middle;spacingTop=-1;spacingLeft=3;spacingRight=3;rotatable=0;labelPosition=right;points=[];portConstraint=eastwest;strokeColor=inherit;" vertex="1" parent="xVFQKaqjHIsM4C6yXQPp-12">
          <mxGeometry y="52" width="280" height="8" as="geometry" />
        </mxCell>
        <mxCell id="xVFQKaqjHIsM4C6yXQPp-15" value="+ getText(): String" style="text;strokeColor=none;fillColor=none;align=left;verticalAlign=top;spacingLeft=4;spacingRight=4;overflow=hidden;rotatable=0;points=[[0,0.5],[1,0.5]];portConstraint=eastwest;whiteSpace=wrap;html=1;" vertex="1" parent="xVFQKaqjHIsM4C6yXQPp-12">
          <mxGeometry y="60" width="280" height="26" as="geometry" />
        </mxCell>
        <mxCell id="xVFQKaqjHIsM4C6yXQPp-30" value="+ createMemento(String text): MementoDoc" style="text;strokeColor=none;fillColor=none;align=left;verticalAlign=top;spacingLeft=4;spacingRight=4;overflow=hidden;rotatable=0;points=[[0,0.5],[1,0.5]];portConstraint=eastwest;whiteSpace=wrap;html=1;" vertex="1" parent="xVFQKaqjHIsM4C6yXQPp-12">
          <mxGeometry y="86" width="280" height="26" as="geometry" />
        </mxCell>
        <mxCell id="xVFQKaqjHIsM4C6yXQPp-17" value="CaretakerHistory" style="swimlane;fontStyle=1;align=center;verticalAlign=top;childLayout=stackLayout;horizontal=1;startSize=26;horizontalStack=0;resizeParent=1;resizeParentMax=0;resizeLast=0;collapsible=1;marginBottom=0;whiteSpace=wrap;html=1;" vertex="1" parent="WIyWlLk6GJQsqaUBKTNV-1">
          <mxGeometry x="240" y="199" width="240" height="216" as="geometry" />
        </mxCell>
        <mxCell id="xVFQKaqjHIsM4C6yXQPp-18" value="- history: Deque&amp;lt;MementoDoc&amp;gt;" style="text;strokeColor=none;fillColor=none;align=left;verticalAlign=top;spacingLeft=4;spacingRight=4;overflow=hidden;rotatable=0;points=[[0,0.5],[1,0.5]];portConstraint=eastwest;whiteSpace=wrap;html=1;" vertex="1" parent="xVFQKaqjHIsM4C6yXQPp-17">
          <mxGeometry y="26" width="240" height="26" as="geometry" />
        </mxCell>
        <mxCell id="xVFQKaqjHIsM4C6yXQPp-19" value="" style="line;strokeWidth=1;fillColor=none;align=left;verticalAlign=middle;spacingTop=-1;spacingLeft=3;spacingRight=3;rotatable=0;labelPosition=right;points=[];portConstraint=eastwest;strokeColor=inherit;" vertex="1" parent="xVFQKaqjHIsM4C6yXQPp-17">
          <mxGeometry y="52" width="240" height="8" as="geometry" />
        </mxCell>
        <mxCell id="xVFQKaqjHIsM4C6yXQPp-20" value="+ undo(): MementoDoc" style="text;strokeColor=none;fillColor=none;align=left;verticalAlign=top;spacingLeft=4;spacingRight=4;overflow=hidden;rotatable=0;points=[[0,0.5],[1,0.5]];portConstraint=eastwest;whiteSpace=wrap;html=1;" vertex="1" parent="xVFQKaqjHIsM4C6yXQPp-17">
          <mxGeometry y="60" width="240" height="26" as="geometry" />
        </mxCell>
        <mxCell id="xVFQKaqjHIsM4C6yXQPp-24" value="+ redo(): MementoDoc" style="text;strokeColor=none;fillColor=none;align=left;verticalAlign=top;spacingLeft=4;spacingRight=4;overflow=hidden;rotatable=0;points=[[0,0.5],[1,0.5]];portConstraint=eastwest;whiteSpace=wrap;html=1;" vertex="1" parent="xVFQKaqjHIsM4C6yXQPp-17">
          <mxGeometry y="86" width="240" height="26" as="geometry" />
        </mxCell>
        <mxCell id="xVFQKaqjHIsM4C6yXQPp-25" value="+ addLast(MementoDoc memento): void" style="text;strokeColor=none;fillColor=none;align=left;verticalAlign=top;spacingLeft=4;spacingRight=4;overflow=hidden;rotatable=0;points=[[0,0.5],[1,0.5]];portConstraint=eastwest;whiteSpace=wrap;html=1;" vertex="1" parent="xVFQKaqjHIsM4C6yXQPp-17">
          <mxGeometry y="112" width="240" height="26" as="geometry" />
        </mxCell>
        <mxCell id="xVFQKaqjHIsM4C6yXQPp-26" value="+ size(): int" style="text;strokeColor=none;fillColor=none;align=left;verticalAlign=top;spacingLeft=4;spacingRight=4;overflow=hidden;rotatable=0;points=[[0,0.5],[1,0.5]];portConstraint=eastwest;whiteSpace=wrap;html=1;" vertex="1" parent="xVFQKaqjHIsM4C6yXQPp-17">
          <mxGeometry y="138" width="240" height="26" as="geometry" />
        </mxCell>
        <mxCell id="xVFQKaqjHIsM4C6yXQPp-27" value="+ getCurrentIndex(): int" style="text;strokeColor=none;fillColor=none;align=left;verticalAlign=top;spacingLeft=4;spacingRight=4;overflow=hidden;rotatable=0;points=[[0,0.5],[1,0.5]];portConstraint=eastwest;whiteSpace=wrap;html=1;" vertex="1" parent="xVFQKaqjHIsM4C6yXQPp-17">
          <mxGeometry y="164" width="240" height="26" as="geometry" />
        </mxCell>
        <mxCell id="xVFQKaqjHIsM4C6yXQPp-28" value="+ changeIndex(int value): void" style="text;strokeColor=none;fillColor=none;align=left;verticalAlign=top;spacingLeft=4;spacingRight=4;overflow=hidden;rotatable=0;points=[[0,0.5],[1,0.5]];portConstraint=eastwest;whiteSpace=wrap;html=1;" vertex="1" parent="xVFQKaqjHIsM4C6yXQPp-17">
          <mxGeometry y="190" width="240" height="26" as="geometry" />
        </mxCell>
        <mxCell id="xVFQKaqjHIsM4C6yXQPp-22" value="Use" style="endArrow=open;endSize=12;dashed=1;html=1;rounded=0;exitX=0.5;exitY=0;exitDx=0;exitDy=0;" edge="1" parent="WIyWlLk6GJQsqaUBKTNV-1" source="xVFQKaqjHIsM4C6yXQPp-8">
          <mxGeometry x="0.0075" width="160" relative="1" as="geometry">
            <mxPoint x="849" y="369" as="sourcePoint" />
            <mxPoint x="780" y="310" as="targetPoint" />
            <mxPoint as="offset" />
          </mxGeometry>
        </mxCell>
        <mxCell id="xVFQKaqjHIsM4C6yXQPp-29" value="" style="endArrow=diamondThin;endFill=0;endSize=24;html=1;rounded=0;entryX=1;entryY=0.5;entryDx=0;entryDy=0;exitX=0;exitY=0.5;exitDx=0;exitDy=0;" edge="1" parent="WIyWlLk6GJQsqaUBKTNV-1" source="xVFQKaqjHIsM4C6yXQPp-13" target="xVFQKaqjHIsM4C6yXQPp-18">
          <mxGeometry width="160" relative="1" as="geometry">
            <mxPoint x="620" y="150" as="sourcePoint" />
            <mxPoint x="780" y="150" as="targetPoint" />
          </mxGeometry>
        </mxCell>
      </root>
    </mxGraphModel>
  </diagram>
</mxfile>
